<svg width="16" height="16" viewBox="0 0 16 16" fill="none" xmlns="http://www.w3.org/2000/svg">
<g clip-path="url(#clip0_228_1460)">
<path d="M8.402 9.554C9.03823 9.554 9.554 9.03823 9.554 8.402C9.554 7.76577 9.03823 7.25 8.402 7.25C7.76577 7.25 7.25 7.76577 7.25 8.402C7.25 9.03823 7.76577 9.554 8.402 9.554Z" fill="#342E38"/>
<path d="M12.652 9.554C13.2882 9.554 13.804 9.03823 13.804 8.402C13.804 7.76577 13.2882 7.25 12.652 7.25C12.0158 7.25 11.5 7.76577 11.5 8.402C11.5 9.03823 12.0158 9.554 12.652 9.554Z" fill="#342E38"/>
<path d="M4.152 9.554C4.78823 9.554 5.304 9.03823 5.304 8.402C5.304 7.76577 4.78823 7.25 4.152 7.25C3.51577 7.25 3 7.76577 3 8.402C3 9.03823 3.51577 9.554 4.152 9.554Z" fill="#342E38"/>
</g>
<defs>
<clipPath id="clip0_228_1460">
<rect width="16" height="16" fill="white"/>
</clipPath>
</defs>
</svg>
