<svg width="16" height="16" viewBox="0 0 16 16" fill="none" xmlns="http://www.w3.org/2000/svg">
<g clip-path="url(#clip0_178_971)">
<path d="M8 8.75C8.41421 8.75 8.75 8.41421 8.75 8C8.75 7.58579 8.41421 7.25 8 7.25C7.58579 7.25 7.25 7.58579 7.25 8C7.25 8.41421 7.58579 8.75 8 8.75Z" fill="#342E38"/>
<path d="M5.25 8.75C5.66421 8.75 6 8.41421 6 8C6 7.58579 5.66421 7.25 5.25 7.25C4.83579 7.25 4.5 7.58579 4.5 8C4.5 8.41421 4.83579 8.75 5.25 8.75Z" fill="#342E38"/>
<path d="M10.75 8.75C11.1642 8.75 11.5 8.41421 11.5 8C11.5 7.58579 11.1642 7.25 10.75 7.25C10.3358 7.25 10 7.58579 10 8C10 8.41421 10.3358 8.75 10.75 8.75Z" fill="#342E38"/>
<path d="M2.82188 14.3819C2.74905 14.4431 2.66025 14.4823 2.56591 14.4949C2.47158 14.5074 2.37562 14.4928 2.28931 14.4527C2.20301 14.4126 2.12994 14.3487 2.07869 14.2685C2.02744 14.1883 2.00014 14.0952 2 14V4C2 3.86739 2.05268 3.74021 2.14645 3.64645C2.24021 3.55268 2.36739 3.5 2.5 3.5H13.5C13.6326 3.5 13.7598 3.55268 13.8536 3.64645C13.9473 3.74021 14 3.86739 14 4V12C14 12.1326 13.9473 12.2598 13.8536 12.3536C13.7598 12.4473 13.6326 12.5 13.5 12.5H5L2.82188 14.3819Z" stroke="#342E38" stroke-width="1.5" stroke-linecap="round" stroke-linejoin="round"/>
</g>
<defs>
<clipPath id="clip0_178_971">
<rect width="16" height="16" fill="white"/>
</clipPath>
</defs>
</svg>
