<svg width="33" height="32" viewBox="0 0 33 32" fill="none" xmlns="http://www.w3.org/2000/svg">
<g clip-path="url(#clip0_178_1027)">
<path d="M7.60156 19C9.25842 19 10.6016 17.6569 10.6016 16C10.6016 14.3431 9.25842 13 7.60156 13C5.94471 13 4.60156 14.3431 4.60156 16C4.60156 17.6569 5.94471 19 7.60156 19Z" stroke="#C05A20" stroke-width="2" stroke-linecap="round" stroke-linejoin="round"/>
<path d="M19.6016 19C21.2584 19 22.6016 17.6569 22.6016 16C22.6016 14.3431 21.2584 13 19.6016 13C17.9447 13 16.6016 14.3431 16.6016 16C16.6016 17.6569 17.9447 19 19.6016 19Z" stroke="#C05A20" stroke-width="2" stroke-linecap="round" stroke-linejoin="round"/>
<path d="M22.6016 27C25.9153 27 28.6016 22.0751 28.6016 16C28.6016 9.92487 25.9153 5 22.6016 5C19.2879 5 16.6016 9.92487 16.6016 16C16.6016 22.0751 19.2879 27 22.6016 27Z" stroke="#C05A20" stroke-width="2" stroke-linecap="round" stroke-linejoin="round"/>
<path d="M10.6016 27C13.9153 27 16.6016 22.0751 16.6016 16C16.6016 9.92487 13.9153 5 10.6016 5C7.28785 5 4.60156 9.92487 4.60156 16C4.60156 22.0751 7.28785 27 10.6016 27Z" stroke="#C05A20" stroke-width="2" stroke-linecap="round" stroke-linejoin="round"/>
</g>
<defs>
<clipPath id="clip0_178_1027">
<rect width="32" height="32" fill="white" transform="translate(0.601562)"/>
</clipPath>
</defs>
</svg>
