<svg width="16" height="16" viewBox="0 0 16 16" fill="none" xmlns="http://www.w3.org/2000/svg">
<g id="StarHalf" clip-path="url(#clip0_151_22)">
<path id="Vector" d="M14.9488 6.07866C14.8863 5.88649 14.7683 5.71712 14.6097 5.59188C14.4511 5.46665 14.259 5.39116 14.0575 5.37491L10.37 5.07741L8.94629 1.63429C8.86929 1.44667 8.73825 1.28619 8.56981 1.17325C8.40137 1.06031 8.20315 1 8.00035 1C7.79756 1 7.59934 1.06031 7.4309 1.17325C7.26246 1.28619 7.13141 1.44667 7.05442 1.63429L5.63192 5.07679L1.94254 5.37491C1.74078 5.39198 1.54854 5.4682 1.3899 5.59404C1.23127 5.71988 1.1133 5.88973 1.05077 6.08232C0.988239 6.27491 0.983936 6.48167 1.0384 6.67669C1.09286 6.87172 1.20366 7.04633 1.35692 7.17866L4.16942 9.60554L3.31254 13.2343C3.26526 13.4313 3.27744 13.6379 3.34753 13.828C3.41762 14.0181 3.54248 14.1832 3.70633 14.3024C3.87019 14.4216 4.06569 14.4895 4.26814 14.4976C4.47059 14.5058 4.67091 14.4537 4.84379 14.348L8.00004 12.4055L11.1582 14.348C11.331 14.4531 11.5311 14.5047 11.7332 14.4962C11.9353 14.4878 12.1304 14.4198 12.2939 14.3007C12.4574 14.1816 12.5821 14.0168 12.6521 13.8271C12.7221 13.6373 12.7345 13.431 12.6875 13.2343L11.8275 9.60491L14.64 7.17804C14.7945 7.04593 14.9064 6.87093 14.9613 6.67522C15.0163 6.47951 15.0119 6.27189 14.9488 6.07866ZM13.99 6.42054L10.9463 9.04554C10.8769 9.10537 10.8252 9.18312 10.797 9.27031C10.7688 9.35749 10.7651 9.45076 10.7863 9.53991L11.7163 13.4649C11.7187 13.4703 11.7189 13.4765 11.717 13.482C11.715 13.4876 11.7109 13.4922 11.7057 13.4949C11.6944 13.5037 11.6913 13.5018 11.6819 13.4949L8.26192 11.3918C8.18306 11.3437 8.09241 11.3184 8.00004 11.3187V1.99991C8.01504 1.99991 8.01692 2.00491 8.02192 2.01616L9.56254 5.74116C9.59771 5.82631 9.65572 5.90008 9.73016 5.95434C9.80461 6.00861 9.89259 6.04125 9.98442 6.04866L13.9788 6.37116C13.9888 6.37116 13.9944 6.37116 14 6.38929C14.0057 6.40741 14 6.41429 13.99 6.42054Z" fill="#F9F70D"/>
</g>
<defs>
<clipPath id="clip0_151_22">
<rect width="16" height="16" fill="white"/>
</clipPath>
</defs>
</svg>
